# xmcd
#
# Track frame offsets: 
#        150
#        11443
#        21522
#        33657
#        46727
#        58047
#        68653
#        78760
#        88476
#        104390
#        115339
#        124048
#        142134
#        153430
#        170711
#        187000
#        197652
#        207515
#        218109
#        231412
#
# Disc length: 3265 seconds
#
# Revision: 0
# Processed by: cddbd v1.5.2PL0 Copyright (c) Steve Scherf et al.
# Submitted via: ExactAudioCopy v1.0b3
#
DISCID=280cbf14
DTITLE=John Lee Hooker - The Very Best of John Lee Hooker (Degitally R
DTITLE=emastered)[Disc 1]
DYEAR=2009
DGENRE=Blues
TTITLE0=Boom Boom
TTITLE1=Dimples
TTITLE2=I'm In The Mood
TTITLE3=I'm So Excited
TTITLE4=Hard Hearted Woman
TTITLE5=Want Ad Blues
TTITLE6=I Wanna Walk
TTITLE7=Onions
TTITLE8=Thelma
TTITLE9=Send Me Your Pillow
TTITLE10=Lost a Good Girl
TTITLE11=House Rent Boogie
TTITLE12=What Do You Say
TTITLE13=Blues Before Sunrise
TTITLE14=Process
TTITLE15=Let's Make It
TTITLE16=I'm Leaving Baby
TTITLE17=She's Mine (Keep Your Hands to Yourself)
TTITLE18=Baby Lee
TTITLE19=I'm Goin' Upstairs
EXTD=
EXTT0=
EXTT1=
EXTT2=
EXTT3=
EXTT4=
EXTT5=
EXTT6=
EXTT7=
EXTT8=
EXTT9=
EXTT10=
EXTT11=
EXTT12=
EXTT13=
EXTT14=
EXTT15=
EXTT16=
EXTT17=
EXTT18=
EXTT19=
PLAYORDER=
